<?xml version="1.0" encoding="UTF-8"?>
<svg version="1.1" xmlns="http://www.w3.org/2000/svg" width="256" height="256">
<linearGradient id="Gradient1" x1="0" x2="0" y1="0" y2="1">
      <stop stop-color="aqua" offset="0%" />
      <stop stop-color="dodgerblue" offset="80%" />
    </linearGradient>
<path d="M0 0 C2.88110352 1.88549805 2.88110352 1.88549805 5.56640625 4.57421875 C6.06564102 5.06298996 6.56487579 5.55176117 7.07923889 6.05534363 C8.16336639 7.12183966 9.23849959 8.19753912 10.30548096 9.28118896 C12.05031364 11.05103491 13.81999654 12.79244596 15.59716797 14.52978516 C18.75921356 17.62946871 21.89496944 20.75416436 25.02075195 23.89038086 C26.95604805 25.83110002 28.89671872 27.76633173 30.83789062 29.70117188 C32.08886288 30.95280404 33.33952537 32.2047459 34.58984375 33.45703125 C35.16073227 34.02589554 35.73162079 34.59475983 36.31980896 35.18086243 C38.91798727 37.79416539 41.40544345 40.43067347 43.74438477 43.2800293 C45.97368437 45.96826687 48.2493507 47.86824679 51 50 C52.67924079 51.65399696 54.34430491 53.32243351 56 55 C56.82346924 55.82346924 57.64693848 56.64693848 58.49536133 57.49536133 C64.66357422 63.66357422 70.83178711 69.83178711 77 76 C81.98280714 71.87080069 86.42707669 67.54479514 90.79296875 62.77734375 C101.19122467 51.58651377 112.0207912 40.82711897 122.83178711 30.0378418 C125.7693162 27.1061042 128.70220232 24.16976844 131.63387775 21.23217869 C133.91313073 18.94932109 136.19474839 16.66883895 138.47710228 14.38908195 C139.56110113 13.30574778 140.64436427 12.22167691 141.72686195 11.13684273 C143.22606687 9.63510275 144.72843035 8.13659621 146.23168945 6.63891602 C147.08277786 5.7886232 147.93386627 4.93833038 148.81074524 4.06227112 C152.36002536 0.71886038 154.88161685 -0.63629662 159.83934021 -0.50590515 C162.52724228 0.12345052 163.73522228 1.16645676 165.75805664 3.03198242 C166.45271027 3.66913177 167.14736389 4.30628113 167.86306763 4.96273804 C171.34657647 8.2837697 174.78525232 11.64260254 178.18359375 15.05078125 C178.92456802 15.7907988 179.6655423 16.53081635 180.42897034 17.29325867 C181.97885859 18.8424716 183.52750558 20.39292727 185.07495117 21.94458008 C187.45182249 24.32685505 189.83404646 26.70368497 192.21679688 29.08007812 C193.72688365 30.5908249 195.23666062 32.10188141 196.74609375 33.61328125 C197.45954453 34.32470779 198.1729953 35.03613434 198.9080658 35.76911926 C199.5628743 36.42707993 200.2176828 37.08504059 200.89233398 37.76293945 C201.46999008 38.34139114 202.04764618 38.91984283 202.64280701 39.51582336 C205.20468536 42.31739986 205.52622771 45.04130054 205.46075439 48.80265808 C204.53810539 53.2027796 201.16553922 55.8698334 198.0234375 58.88476562 C197.28216614 59.6272052 196.54089478 60.36964478 195.77716064 61.13458252 C193.32826123 63.57791927 190.85227739 65.99171833 188.375 68.40625 C186.66932267 70.09700281 184.96540597 71.7895335 183.26318359 73.48376465 C178.78265642 77.93377661 174.27862636 82.35924142 169.76928711 86.7800293 C165.17030336 91.29711278 160.5939408 95.83698654 156.015625 100.375 C147.0324254 109.27245373 138.02497868 118.14493726 129 127 C133.10230852 131.89090291 137.36017628 136.49613952 141.89160156 140.98925781 C142.55250793 141.64870392 143.21341431 142.30815002 143.89434814 142.98757935 C145.31730429 144.40675455 146.74141363 145.82477426 148.16657257 147.24173737 C150.42153307 149.48385707 152.67328701 151.72915363 154.92425537 153.97528076 C159.69669726 158.73634027 164.4730684 163.49344575 169.25 168.25 C174.80097776 173.7773743 180.35033161 179.30635878 185.89550018 184.83956146 C188.11484505 187.05242039 190.33717712 189.26224943 192.55963135 191.47198486 C193.9152269 192.82394915 195.27068297 194.17605332 196.62597656 195.52832031 C197.24520996 196.14238739 197.86444336 196.75645447 198.50244141 197.38912964 C199.06868225 197.95529999 199.6349231 198.52147034 200.21832275 199.10479736 C200.71014164 199.59439564 201.20196053 200.08399391 201.70868301 200.5884285 C204.68807362 203.84527629 205.62195469 206.42692336 205.50590515 210.83934021 C204.87654948 213.52724228 203.83354324 214.73522228 201.96801758 216.75805664 C201.33086823 217.45271027 200.69371887 218.14736389 200.03726196 218.86306763 C196.7162303 222.34657647 193.35739746 225.78525232 189.94921875 229.18359375 C189.2092012 229.92456802 188.46918365 230.6655423 187.70674133 231.42897034 C186.1575284 232.97885859 184.60707273 234.52750558 183.05541992 236.07495117 C180.67314495 238.45182249 178.29631503 240.83404646 175.91992188 243.21679688 C174.4091751 244.72688365 172.89811859 246.23666062 171.38671875 247.74609375 C170.67529221 248.45954453 169.96386566 249.1729953 169.23088074 249.9080658 C168.24393974 250.89027855 168.24393974 250.89027855 167.23706055 251.89233398 C166.36938301 252.75881813 166.36938301 252.75881813 165.48417664 253.64280701 C162.68260014 256.20468536 159.95869946 256.52622771 156.19734192 256.46075439 C151.7972204 255.53810539 149.1301666 252.16553922 146.11523438 249.0234375 C145.3727948 248.28216614 144.63035522 247.54089478 143.86541748 246.77716064 C141.42208073 244.32826123 139.00828167 241.85227739 136.59375 239.375 C134.90299719 237.66932267 133.2104665 235.96540597 131.51623535 234.26318359 C127.06622339 229.78265642 122.64075858 225.27862636 118.2199707 220.76928711 C113.70288722 216.17030336 109.16301346 211.5939408 104.625 207.015625 C95.72754627 198.0324254 86.85506274 189.02497868 78 180 C74.81058851 181.51876738 72.66753164 183.08940757 70.1875 185.625 C69.56230469 186.25664062 68.93710938 186.88828125 68.29296875 187.5390625 C66.52107214 189.44075733 64.83993473 191.36507787 63.15844727 193.34375 C57.78467591 199.49193795 51.94834409 205.1955913 46.171875 210.9609375 C44.93338686 212.20010042 43.6950471 213.43941165 42.45684814 214.67886353 C39.8764978 217.2606799 37.29436812 219.84069953 34.7109375 222.41943359 C31.39988893 225.72475547 28.09339077 229.03458745 24.78818893 232.34575462 C22.23870206 234.89885124 19.68684306 237.44956613 17.13425446 239.99956131 C15.91349141 241.21965779 14.69346936 242.44049614 13.47420502 243.6620903 C11.77524897 245.36358287 10.07312596 247.06184244 8.37011719 248.75927734 C7.86825897 249.26315979 7.36640076 249.76704224 6.84933472 250.28619385 C3.4336966 253.68112799 1.19556221 255.8176261 -3.6875 256.5625 C-7.39598168 256.46496443 -9.05472497 255.46112068 -11.75805664 252.96801758 C-12.45271027 252.33086823 -13.14736389 251.69371887 -13.86306763 251.03726196 C-17.34657647 247.7162303 -20.78525232 244.35739746 -24.18359375 240.94921875 C-24.92456802 240.2092012 -25.6655423 239.46918365 -26.42897034 238.70674133 C-27.97885859 237.1575284 -29.52750558 235.60707273 -31.07495117 234.05541992 C-33.45182249 231.67314495 -35.83404646 229.29631503 -38.21679688 226.91992188 C-39.72688365 225.4091751 -41.23666062 223.89811859 -42.74609375 222.38671875 C-43.45954453 221.67529221 -44.1729953 220.96386566 -44.9080658 220.23088074 C-45.5628743 219.57292007 -46.2176828 218.91495941 -46.89233398 218.23706055 C-47.75881813 217.36938301 -47.75881813 217.36938301 -48.64280701 216.48417664 C-51.20468536 213.68260014 -51.52622771 210.95869946 -51.46075439 207.19734192 C-50.53810539 202.7972204 -47.16553922 200.1301666 -44.0234375 197.11523438 C-42.91153046 196.00157501 -42.91153046 196.00157501 -41.77716064 194.86541748 C-39.32826123 192.42208073 -36.85227739 190.00828167 -34.375 187.59375 C-32.66932267 185.90299719 -30.96540597 184.2104665 -29.26318359 182.51623535 C-24.78265642 178.06622339 -20.27862636 173.64075858 -15.76928711 169.2199707 C-11.17030336 164.70288722 -6.5939408 160.16301346 -2.015625 155.625 C6.9675746 146.72754627 15.97502132 137.85506274 25 129 C23.54142503 125.95514704 22.084703 123.83602321 19.68701172 121.4440918 C19.012258 120.76626144 18.33750427 120.08843109 17.64230347 119.39006042 C16.9121402 118.66708267 16.18197693 117.94410492 15.4296875 117.19921875 C14.67462921 116.44461868 13.91957092 115.69001862 13.14163208 114.91255188 C11.54177249 113.31571261 9.93948395 111.72130373 8.33496094 110.12915039 C5.89988651 107.71220127 3.47277849 105.28747835 1.046875 102.86132812 C-0.5125524 101.30682161 -2.07243411 99.75277068 -3.6328125 98.19921875 C-4.35083038 97.48231369 -5.06884827 96.76540863 -5.80862427 96.02677917 C-9.77732886 92.0945759 -13.84686229 88.3500507 -18.07498169 84.69941711 C-21.19108748 81.9485012 -24.12146961 79.02146177 -27.0546875 76.078125 C-27.99612106 75.13812653 -27.99612106 75.13812653 -28.95657349 74.17913818 C-30.26687276 72.86951303 -31.57593585 71.55864994 -32.88378906 70.24658203 C-34.88753445 68.23743174 -36.89662707 66.2337383 -38.90625 64.23046875 C-40.18521698 62.95084173 -41.46387414 61.67090496 -42.7421875 60.390625 C-43.34110809 59.79372864 -43.94002869 59.19683228 -44.55709839 58.58184814 C-50.80137756 52.30208045 -50.80137756 52.30208045 -51.5625 47.3125 C-51.46496443 43.60401832 -50.46112068 41.94527503 -47.96801758 39.24194336 C-47.33086823 38.54728973 -46.69371887 37.85263611 -46.03726196 37.13693237 C-42.7162303 33.65342353 -39.35739746 30.21474768 -35.94921875 26.81640625 C-35.2092012 26.07543198 -34.46918365 25.3344577 -33.70674133 24.57102966 C-32.1575284 23.02114141 -30.60707273 21.47249442 -29.05541992 19.92504883 C-26.67314495 17.54817751 -24.29631503 15.16595354 -21.91992188 12.78320312 C-20.4091751 11.27311635 -18.89811859 9.76333938 -17.38671875 8.25390625 C-16.67529221 7.54045547 -15.96386566 6.8270047 -15.23088074 6.0919342 C-14.57292007 5.4371257 -13.91495941 4.7823172 -13.23706055 4.10766602 C-12.65860886 3.53000992 -12.08015717 2.95235382 -11.48417664 2.35719299 C-8.15307836 -0.68890215 -4.28960316 -0.65490757 0 0 Z " fill="url(#Gradient1)" transform="translate(51,0)"/>
</svg>
