<?xml version="1.0" encoding="UTF-8"?>
<svg version="1.1" xmlns="http://www.w3.org/2000/svg" width="128" height="128">
<path d="M0 0 C3.82467214 0.74932352 6.15735488 3.15716807 8.90600586 5.78515625 C9.80766479 6.60173706 9.80766479 6.60173706 10.72753906 7.43481445 C12.53318783 9.07585657 14.3142231 10.74062458 16.09350586 12.41015625 C17.98381904 14.14545652 19.88289379 15.87086375 21.78100586 17.59765625 C23.10551758 18.81388672 23.10551758 18.81388672 24.45678711 20.0546875 C27.06609996 22.38567364 29.74163405 24.59342812 32.46850586 26.78515625 C37.89312858 31.16210506 42.97456785 35.84833368 48.06616211 40.6015625 C51.1503522 43.4776348 54.30719769 46.26164291 57.50756836 49.0078125 C58.03092773 49.47058594 58.55428711 49.93335938 59.09350586 50.41015625 C59.64780273 50.89613281 60.20209961 51.38210937 60.77319336 51.8828125 C62.09350586 53.41015625 62.09350586 53.41015625 62.59350586 56.78515625 C61.96795105 61.3204286 60.66955387 62.64684643 57.09350586 65.41015625 C54.90600586 66.28515625 54.90600586 66.28515625 53.09350586 66.41015625 C52.43350586 66.08015625 51.77350586 65.75015625 51.09350586 65.41015625 C51.0847065 66.40827583 51.0847065 66.40827583 51.07572937 67.42655945 C51.0117849 74.35358202 50.92736195 81.28014046 50.83105469 88.20678711 C50.79780475 90.79168579 50.76977309 93.37665709 50.74707031 95.96166992 C50.71352659 99.67788634 50.66120858 103.39343726 50.60522461 107.109375 C50.59883469 108.26475266 50.59244476 109.42013031 50.58586121 110.61051941 C50.56606705 111.69126236 50.54627289 112.77200531 50.52587891 113.88549805 C50.51477585 114.83369919 50.50367279 115.78190033 50.49223328 116.75883484 C50.01258694 119.94822323 49.04106207 121.85117681 47.09350586 124.41015625 C43.95483398 125.02539062 43.95483398 125.02539062 40.12475586 125.00390625 C39.44803833 125.00394653 38.7713208 125.00398682 38.07409668 125.00402832 C36.64508768 124.99867314 35.21607945 124.98108954 33.78735352 124.95214844 C31.60072804 124.91029449 29.41718297 124.91107759 27.23022461 124.91796875 C16.66061603 124.83814063 16.66061603 124.83814063 14.41862488 123.14616394 C12.7756708 120.99376792 12.72873471 119.8997539 12.75292969 117.21411133 C12.75315628 116.37346634 12.75338287 115.53282135 12.75361633 114.66670227 C12.76910019 113.7634874 12.78458405 112.86027252 12.80053711 111.9296875 C12.80478195 111.00169846 12.80902679 110.07370941 12.81340027 109.11759949 C12.83019924 106.15232382 12.8678537 103.18772665 12.90600586 100.22265625 C12.92105112 98.21290044 12.9347398 96.20313398 12.94702148 94.19335938 C12.9775556 89.26515302 13.03627447 84.33841448 13.09350586 79.41015625 C3.85350586 79.41015625 -5.38649414 79.41015625 -14.90649414 79.41015625 C-14.87168945 82.40722656 -14.83688477 85.40429688 -14.80102539 88.4921875 C-14.77763662 91.39134773 -14.75941616 94.29049749 -14.74169922 97.18969727 C-14.72660235 99.20634659 -14.70612299 101.22296304 -14.68017578 103.23950195 C-14.64383203 106.13631296 -14.62677694 109.03269031 -14.61352539 111.9296875 C-14.59804153 112.83290237 -14.58255768 113.73611725 -14.56660461 114.66670227 C-14.56637802 115.50734726 -14.56615143 116.34799225 -14.56591797 117.21411133 C-14.55925613 117.95357498 -14.5525943 118.69303864 -14.54573059 119.45491028 C-15.01352727 121.99024837 -15.87244756 122.86694681 -17.90649414 124.41015625 C-20.86157227 124.79833984 -20.86157227 124.79833984 -24.43774414 124.80859375 C-25.72293945 124.81246094 -27.00813477 124.81632812 -28.33227539 124.8203125 C-29.00081543 124.81402832 -29.66935547 124.80774414 -30.3581543 124.80126953 C-32.39968744 124.78520979 -34.43924122 124.80112296 -36.48071289 124.8203125 C-37.7659082 124.81644531 -39.05110352 124.81257813 -40.37524414 124.80859375 C-41.55538086 124.80520996 -42.73551758 124.80182617 -43.95141602 124.79833984 C-46.90649414 124.41015625 -46.90649414 124.41015625 -48.56416321 123.23420715 C-50.42039655 120.71183058 -50.30446799 118.95372536 -50.33886719 115.8371582 C-50.35866135 114.69620193 -50.37845551 113.55524567 -50.39884949 112.37971497 C-50.40523941 111.1483934 -50.41162933 109.91707184 -50.41821289 108.6484375 C-50.43616409 107.38750778 -50.4541153 106.12657806 -50.47261047 104.82743835 C-50.51764838 101.47860111 -50.54992155 98.13013205 -50.5760498 94.78112793 C-50.6058518 91.36241339 -50.65238324 87.94393115 -50.69750977 84.52539062 C-50.78261095 77.82041954 -50.85089245 71.11543331 -50.90649414 64.41015625 C-51.5059082 64.89484375 -52.10532227 65.37953125 -52.72290039 65.87890625 C-55.70469712 67.96989787 -57.33294626 67.99359264 -60.90649414 67.41015625 C-64.3743502 64.92234647 -65.70645241 63.43161935 -66.53149414 59.21875 C-65.59859947 53.53392311 -62.26142424 51.20345054 -58.03149414 47.53515625 C-57.24935547 46.8297168 -56.4672168 46.12427734 -55.66137695 45.39746094 C-53.42421927 43.38466801 -51.16762206 41.39592433 -48.90649414 39.41015625 C-47.15492911 37.82855441 -45.40456665 36.24561736 -43.65649414 34.66015625 C-42.8946582 33.98082031 -42.13282227 33.30148438 -41.34790039 32.6015625 C-38.40507507 29.96008249 -35.49761985 27.28207578 -32.59399414 24.59765625 C-32.0501709 24.09508301 -31.50634766 23.59250977 -30.94604492 23.07470703 C-27.53344274 19.91897816 -24.12585714 16.75786923 -20.71899414 13.59594727 C-19.07726514 12.07749045 -17.42821282 10.5673681 -15.77758789 9.05859375 C-14.09742571 7.50872986 -12.43448824 5.9390326 -10.81665039 4.32421875 C-7.3354318 0.96140896 -4.86427202 -0.15143436 0 0 Z " fill="#fff" transform="translate(65.906494140625,1.58984375)"/>
</svg>
