<?xml version="1.0" encoding="UTF-8"?>
<svg version="1.1" xmlns="http://www.w3.org/2000/svg" width="128" height="128">
<path d="M0 0 C0.09280371 11.98746162 0.16381784 23.97483734 0.20724869 35.96258545 C0.22809653 41.52938555 0.25636328 47.09593931 0.30175781 52.66259766 C0.34531506 58.03777478 0.36915819 63.41271539 0.37950897 68.78805542 C0.38688258 70.83572104 0.40128152 72.88337416 0.42292023 74.93093872 C0.45208528 77.80580309 0.4559505 80.67969827 0.45410156 83.5546875 C0.46848267 84.39554398 0.48286377 85.23640045 0.49768066 86.10273743 C0.44825933 93.2347516 -1.75376369 98.25460007 -6.25 103.75 C-12.60102434 108.94629264 -17.81228276 110.70881378 -26.10546875 110.375 C-33.46951879 109.42095303 -37.98033946 105.74813028 -42.58984375 100.078125 C-45.95955559 95.11223387 -46.51417941 89.86164529 -46 84 C-44.53322662 77.38618548 -40.97213219 72.51540188 -36 68 C-30.22499158 64.3764653 -23.65081999 63.95592813 -17 65 C-14.36 66.32 -11.72 67.64 -9 69 C-8.67 57.78 -8.34 46.56 -8 35 C-12.51300781 36.155 -17.02601562 37.31 -21.67578125 38.5 C-24.53310362 39.22956156 -27.3904767 39.95891137 -30.24804688 40.6875 C-34.7849552 41.8442874 -39.32165341 43.00185881 -43.85717773 44.1640625 C-47.51329148 45.10086997 -51.17027894 46.0341908 -54.82790184 46.96508789 C-56.22407996 47.32108194 -57.61993718 47.67833698 -59.01546669 48.03686523 C-60.96820069 48.53831789 -62.92218409 49.03489756 -64.8762207 49.53125 C-65.9887471 49.81548828 -67.1012735 50.09972656 -68.24751282 50.39257812 C-71 51 -71 51 -74 51 C-73.99333817 51.70664291 -73.98667633 52.41328583 -73.97981262 53.14134216 C-73.91944452 59.83434097 -73.87389595 66.52726265 -73.84456348 73.22047329 C-73.82897584 76.66069184 -73.80786592 80.10068348 -73.77368164 83.54077148 C-73.73453993 87.50501697 -73.72023371 91.46917387 -73.70703125 95.43359375 C-73.69154739 96.65582138 -73.67606354 97.87804901 -73.66011047 99.13731384 C-73.6585348 107.20732677 -74.03569669 114.39476625 -79.3125 120.8125 C-87.45772065 127.44233076 -93.57857433 129.02882832 -104 128 C-110.71875393 125.96551764 -114.30729914 121.94422974 -117.90625 116.0859375 C-120.75397479 110.65491952 -120.80616495 104.66900267 -119.50390625 98.7421875 C-117.11480001 91.64235765 -112.29864292 87.83395656 -106 84 C-102.87264089 82.95754696 -100.533837 82.80000767 -97.25 82.75 C-96.24453125 82.72421875 -95.2390625 82.6984375 -94.203125 82.671875 C-91 83 -91 83 -84 86 C-83.67 64.22 -83.34 42.44 -83 20 C-64.69255681 15.29835624 -64.69255681 15.29835624 -56.890625 13.29492188 C-51.56638742 11.92772632 -46.24215697 10.560503 -40.91796875 9.19311523 C-36.62566686 8.09074413 -32.33333321 6.9884968 -28.04097748 5.88633537 C-26.40311297 5.46575264 -24.76525992 5.04512527 -23.12741852 4.62445259 C-20.83399942 4.03540565 -18.54053967 3.44651724 -16.24707031 2.85766602 C-15.56949677 2.68359726 -14.89192322 2.5095285 -14.19381714 2.33018494 C-12.46278978 1.88583435 -10.73141392 1.44284197 -9 1 C-8.29365417 0.79668564 -7.58730835 0.59337128 -6.85955811 0.38389587 C-4.54618899 -0.09368687 -2.35502363 -0.06541732 0 0 Z " fill="#fff" transform="translate(124,0)"/>
</svg>
