<?xml version="1.0" encoding="UTF-8"?>
<svg version="1.1" xmlns="http://www.w3.org/2000/svg" width="128" height="128">
<path d="M0 0 C0.88781662 0.17994003 1.77563324 0.35988007 2.69035339 0.54527283 C5.49715848 1.1143699 8.30150052 1.69444083 11.10546875 2.27734375 C14.81837957 3.04892759 18.53334864 3.80916625 22.25 4.5625 C23.52191948 4.83272728 23.52191948 4.83272728 24.8195343 5.1084137 C26.00678352 5.34877602 26.00678352 5.34877602 27.21801758 5.59399414 C27.91034988 5.73833389 28.60268219 5.88267365 29.31599426 6.03138733 C32.447934 6.32202055 34.57327738 5.810735 36.99609375 3.8046875 C37.76179688 2.98677734 37.76179688 2.98677734 38.54296875 2.15234375 C39.06375 1.60449219 39.58453125 1.05664062 40.12109375 0.4921875 C40.5078125 0.07066406 40.89453125 -0.35085938 41.29296875 -0.78515625 C45.10981101 0.76985356 47.48492607 3.2507987 50.29296875 6.21484375 C48.86867355 9.47263641 47.13672807 11.59603506 44.59765625 14.0703125 C43.88222656 14.77478516 43.16679688 15.47925781 42.4296875 16.20507812 C41.68332031 16.93017578 40.93695313 17.65527344 40.16796875 18.40234375 C38.68407351 19.85199526 37.20218291 21.30370266 35.72265625 22.7578125 C35.06507324 23.3974292 34.40749023 24.0370459 33.72998047 24.69604492 C32.1784224 25.98743054 32.1784224 25.98743054 32.29296875 27.21484375 C34.27296875 27.54484375 36.25296875 27.87484375 38.29296875 28.21484375 C38.29296875 25.90484375 38.29296875 23.59484375 38.29296875 21.21484375 C41.92296875 21.21484375 45.55296875 21.21484375 49.29296875 21.21484375 C49.40937988 29.12583822 49.49794286 37.03646835 49.55202961 44.94811058 C49.57800313 48.62278101 49.61317179 52.2968608 49.67016602 55.97119141 C49.72493042 59.524448 49.75448111 63.07714048 49.76735497 66.6307869 C49.78094151 68.63038003 49.81990279 70.62974964 49.85945129 72.6289978 C49.86184946 80.50656978 49.00064449 86.71422921 44.29296875 93.21484375 C38.28112341 98.91340749 32.56898473 99.58189783 24.58984375 99.484375 C18.97187639 99.0250862 15.32752301 97.43232942 11.51171875 93.2734375 C5.97231845 86.17934702 5.69120962 80.08805569 6.29296875 71.21484375 C8.35546493 65.13590765 12.42238887 61.10528908 17.91796875 57.90234375 C22.86598268 55.58325563 27.93253208 55.52575922 33.29296875 56.21484375 C34.94296875 56.87484375 36.59296875 57.53484375 38.29296875 58.21484375 C38.29296875 52.27484375 38.29296875 46.33484375 38.29296875 40.21484375 C35.32296875 39.88484375 32.35296875 39.55484375 29.29296875 39.21484375 C29.29296875 35.91484375 29.29296875 32.61484375 29.29296875 29.21484375 C4.87296875 53.63484375 -19.54703125 78.05484375 -44.70703125 103.21484375 C-48.61135994 101.2626794 -50.74543069 99.34097768 -53.70703125 96.21484375 C-53.31515625 95.49296875 -52.92328125 94.77109375 -52.51953125 94.02734375 C-51.35142492 91.18811776 -51.35142492 91.18811776 -53.01953125 88.65234375 C-53.57640625 87.84796875 -54.13328125 87.04359375 -54.70703125 86.21484375 C-57.24702876 79.51848668 -55.78852321 72.87918692 -53.04296875 66.55078125 C-50.00016749 61.23032758 -45.48421327 58.07270405 -39.70703125 56.21484375 C-36.69921875 55.984375 -36.69921875 55.984375 -33.58203125 56.02734375 C-32.03128906 56.03701172 -32.03128906 56.03701172 -30.44921875 56.046875 C-27.70703125 56.21484375 -27.70703125 56.21484375 -24.70703125 57.21484375 C-24.70116501 56.56195877 -24.69529877 55.90907379 -24.68925476 55.23640442 C-24.62530491 48.43913737 -24.54088063 41.64234308 -24.44458008 34.84545898 C-24.41133237 32.30906407 -24.3833 29.77259519 -24.3605957 27.23608398 C-24.32704785 23.58936047 -24.27472973 19.94331464 -24.21875 16.296875 C-24.21236008 15.16337112 -24.20597015 14.02986725 -24.1993866 12.86201477 C-24.17959244 11.80129257 -24.15979828 10.74057037 -24.1394043 9.64770508 C-24.12830124 8.71726883 -24.11719818 7.78683258 -24.10575867 6.82820129 C-23.62695226 3.68998635 -22.55044731 1.77922075 -20.70703125 -0.78515625 C-14.67241763 -3.80246306 -6.27378056 -1.33384812 0 0 Z M-11.70703125 31.21484375 C-11.70703125 38.14484375 -11.70703125 45.07484375 -11.70703125 52.21484375 C-7.21886622 48.36784515 -2.91425667 44.58146523 1.23046875 40.40234375 C1.72353516 39.91314453 2.21660156 39.42394531 2.72460938 38.91992188 C5.20201853 36.91388395 5.20201853 36.91388395 6.29296875 34.21484375 C0.35296875 33.22484375 -5.58703125 32.23484375 -11.70703125 31.21484375 Z " fill="#fff" transform="translate(65.70703125,12.78515625)"/>
</svg>
