<?xml version="1.0" encoding="UTF-8"?>
<svg version="1.1" xmlns="http://www.w3.org/2000/svg" width="128" height="128">
<path d="M0 0 C1.39120471 0.00015906 2.78241534 0.00585033 4.17358398 0.01586914 C4.90463852 0.01728409 5.63569305 0.01869904 6.38890076 0.02015686 C8.73253406 0.02577131 11.07607313 0.03832617 13.41967773 0.05102539 C15.00496282 0.05603853 16.59024939 0.06060176 18.17553711 0.06469727 C22.06945383 0.07574542 25.96329979 0.09301967 29.85717773 0.11352539 C31.1016655 2.60250092 30.98300738 4.26285347 30.98416138 7.0480957 C30.9869812 8.09130981 30.98980103 9.13452393 30.9927063 10.20935059 C30.99068207 11.35850952 30.98865784 12.50766846 30.98657227 13.69165039 C30.98832458 14.89817261 30.9900769 16.10469482 30.99188232 17.34777832 C30.99553672 20.66175996 30.99466981 23.9756794 30.99150324 27.28965759 C30.98897624 30.75340866 30.99131813 34.21715703 30.9928894 37.6809082 C30.9947101 43.49829589 30.9923074 49.31567088 30.98754883 55.13305664 C30.9821064 61.86431011 30.98386912 68.5955333 30.98937523 75.32678604 C30.9939092 81.10006088 30.99455552 86.87332659 30.99193656 92.64660263 C30.99037536 96.09737393 30.99017577 99.54813098 30.99347305 102.99890137 C30.99689067 106.84441307 30.99215738 110.68989069 30.98657227 114.53540039 C30.9885965 115.68455933 30.99062073 116.83371826 30.9927063 118.0177002 C30.98988647 119.06091431 30.98706665 120.10412842 30.98416138 121.17895508 C30.98378435 122.0889325 30.98340733 122.99890991 30.98301888 123.9364624 C30.85717773 126.11352539 30.85717773 126.11352539 29.85717773 128.11352539 C25.1757852 128.13817827 20.49443014 128.15636278 15.81298828 128.16845703 C14.21923159 128.17349696 12.62547954 128.18032889 11.03173828 128.18896484 C8.74567521 128.20104538 6.45967306 128.20675694 4.17358398 128.21118164 C3.45691055 128.21634293 2.74023712 128.22150421 2.00184631 128.2268219 C0.28654101 128.22701802 -1.42863493 128.17544546 -3.14282227 128.11352539 C-4.8010349 126.45531276 -4.26887799 124.49791544 -4.26980591 122.21655273 C-4.27262573 121.15643982 -4.27544556 120.0963269 -4.27835083 119.00408936 C-4.2763266 117.83106262 -4.27430237 116.65803589 -4.2722168 115.44946289 C-4.27396912 114.22197327 -4.27572144 112.99448364 -4.27752686 111.72979736 C-4.2811851 108.35384261 -4.28031191 104.97794878 -4.27714777 101.60199738 C-4.27462383 98.07637955 -4.2769618 94.55076441 -4.27853394 91.02514648 C-4.28035553 85.10342946 -4.27794958 79.1817249 -4.27319336 73.26000977 C-4.26775076 66.40435729 -4.26951342 59.54873456 -4.27501976 52.69308281 C-4.27955118 46.81708458 -4.28020131 40.94109532 -4.2775811 35.0650959 C-4.27601848 31.55118446 -4.27582414 28.03728702 -4.27911758 24.52337646 C-4.28253058 20.60810176 -4.2778061 16.69286062 -4.2722168 12.77758789 C-4.27424103 11.60456116 -4.27626526 10.43153442 -4.27835083 9.22296143 C-4.27553101 8.16284851 -4.27271118 7.1027356 -4.26980591 6.01049805 C-4.26942888 5.08355133 -4.26905186 4.15660461 -4.26866341 3.2015686 C-4.06296459 -0.21152834 -3.50429244 0.12658246 0 0 Z " fill="#ffffff" transform="translate(80.142822265625,-0.113525390625)"/>
<path d="M0 0 C4.68139254 -0.02465288 9.36274759 -0.04283739 14.04418945 -0.05493164 C15.63794614 -0.05997157 17.23169819 -0.0668035 18.82543945 -0.07543945 C21.11150253 -0.08751999 23.39750467 -0.09323155 25.68359375 -0.09765625 C26.40026718 -0.10281754 27.11694061 -0.10797882 27.85533142 -0.11329651 C29.57063672 -0.11349263 31.28581266 -0.06192007 33 0 C34.65821263 1.65821263 34.12605572 3.61560995 34.12698364 5.89697266 C34.12980347 6.95708557 34.13262329 8.01719849 34.13552856 9.10943604 C34.13350433 10.28246277 34.1314801 11.4554895 34.12939453 12.6640625 C34.13114685 13.89155212 34.13289917 15.11904175 34.13470459 16.38372803 C34.13836283 19.75968279 34.13748964 23.13557661 34.1343255 26.51152802 C34.13180157 30.03714584 34.13413954 33.56276098 34.13571167 37.08837891 C34.13753327 43.01009593 34.13512732 48.93180049 34.13037109 54.85351562 C34.12492849 61.7091681 34.12669115 68.56479083 34.1321975 75.42044258 C34.13672891 81.29644081 34.13737904 87.17243007 34.13475883 93.04842949 C34.13319621 96.56234093 34.13300188 100.07623837 34.13629532 103.59014893 C34.13970832 107.50542363 34.13498383 111.42066477 34.12939453 115.3359375 C34.13141876 116.50896423 34.13344299 117.68199097 34.13552856 118.89056396 C34.13270874 119.95067688 34.12988892 121.01078979 34.12698364 122.10302734 C34.12660662 123.02997406 34.12622959 123.95692078 34.12584114 124.91195679 C34 127 34 127 33 128 C30.55169574 128.08843793 28.13179401 128.11528752 25.68359375 128.09765625 C24.95253922 128.0962413 24.22148468 128.09482635 23.46827698 128.09336853 C21.12464368 128.08775408 18.78110461 128.07519922 16.4375 128.0625 C14.85221492 128.05748686 13.26692834 128.05292363 11.68164062 128.04882812 C7.7877239 128.03777997 3.89387795 128.02050572 0 128 C-1.24448777 125.51102447 -1.12582965 123.85067192 -1.12698364 121.06542969 C-1.12980347 120.02221558 -1.13262329 118.97900146 -1.13552856 117.9041748 C-1.13350433 116.75501587 -1.1314801 115.60585693 -1.12939453 114.421875 C-1.13114685 113.21535278 -1.13289917 112.00883057 -1.13470459 110.76574707 C-1.13835898 107.45176543 -1.13749208 104.13784599 -1.1343255 100.8238678 C-1.1317985 97.36011673 -1.1341404 93.89636836 -1.13571167 90.43261719 C-1.13753237 84.61522951 -1.13512967 78.79785451 -1.13037109 72.98046875 C-1.12492866 66.24921528 -1.12669139 59.51799209 -1.1321975 52.78673935 C-1.13673147 47.01346451 -1.13737778 41.2401988 -1.13475883 35.46692276 C-1.13319762 32.01615146 -1.13299804 28.56539441 -1.13629532 25.11462402 C-1.13971294 21.26911232 -1.13497964 17.4236347 -1.12939453 13.578125 C-1.13243088 11.8543866 -1.13243088 11.8543866 -1.13552856 10.0958252 C-1.13270874 9.05261108 -1.12988892 8.00939697 -1.12698364 6.93457031 C-1.12660662 6.0245929 -1.12622959 5.11461548 -1.12584114 4.17706299 C-1 2 -1 2 0 0 Z " fill="#fff" transform="translate(18,0)"/>
</svg>
