<?xml version="1.0" encoding="UTF-8"?>
<svg version="1.1" xmlns="http://www.w3.org/2000/svg" width="128" height="128">
<path d="M0 0 C4.74581025 0.92099285 8.67061744 3.59720598 12.75732422 6.07519531 C14.80754064 7.27668049 16.85834245 8.4771672 18.90966797 9.67675781 C19.96524902 10.30098633 21.02083008 10.92521484 22.10839844 11.56835938 C27.30002772 14.61055783 32.56120566 17.52586632 37.81982422 20.45019531 C46.76961209 25.45234052 55.70200605 30.48444413 64.62280273 35.53808594 C69.75144205 38.44113948 74.88785148 41.32947276 80.03466797 44.20019531 C81.15615234 44.82603516 82.27763672 45.451875 83.43310547 46.09667969 C85.58706067 47.29768056 87.74195117 48.49700618 89.89794922 49.69433594 C105.90527366 58.62109419 105.90527366 58.62109419 107.31982422 61.45019531 C107.63232422 64.32519531 107.63232422 64.32519531 107.31982422 67.45019531 C104.5743052 70.71627145 101.55478874 72.63799738 97.83154297 74.66503906 C96.74470215 75.26195557 95.65786133 75.85887207 94.53808594 76.47387695 C93.96314392 76.78551788 93.3882019 77.09715881 92.7958374 77.41824341 C90.35416577 78.74173559 87.92079445 80.08017519 85.48669434 81.41752625 C84.23917021 82.10266687 82.99120176 82.78699904 81.74279785 83.47053528 C76.03060996 86.59941331 70.35830448 89.79653918 64.69482422 93.01269531 C56.74989257 97.51604367 48.79067899 101.99289037 40.81982422 106.45019531 C32.35381731 111.1866224 23.89373182 115.93332271 15.44482422 120.70019531 C14.46964844 121.24933594 13.49447266 121.79847656 12.48974609 122.36425781 C11.590625 122.87214844 10.69150391 123.38003906 9.76513672 123.90332031 C8.9763916 124.34836914 8.18764648 124.79341797 7.375 125.25195312 C5.65242076 126.25627944 3.97891468 127.344135 2.31982422 128.45019531 C0.38232422 128.75097656 0.38232422 128.75097656 -1.68017578 128.76269531 C-2.36080078 128.77945313 -3.04142578 128.79621094 -3.74267578 128.81347656 C-6.31704028 128.33078322 -7.0716549 127.50059263 -8.68017578 125.45019531 C-9.0576992 123.18411255 -9.0576992 123.18411255 -9.06112671 120.47802734 C-9.06958618 119.45171204 -9.07804565 118.42539673 -9.08676147 117.36798096 C-9.08068878 116.24268982 -9.07461609 115.11739868 -9.06835938 113.95800781 C-9.07361633 112.772453 -9.07887329 111.58689819 -9.08428955 110.36541748 C-9.0952411 107.11330767 -9.09265991 103.86156334 -9.08315229 100.60945892 C-9.07556172 97.20756761 -9.08259962 93.80570086 -9.08731079 90.40380859 C-9.09277012 84.69071055 -9.08557216 78.97772882 -9.07128906 73.26464844 C-9.0549621 66.65770967 -9.06025049 60.05104863 -9.07676828 53.44411659 C-9.09037818 47.77354364 -9.09230527 42.10305433 -9.08445227 36.43247032 C-9.07977298 33.044798 -9.07915781 29.65725624 -9.08906174 26.26959229 C-9.09665406 22.49366295 -9.08510233 18.71827191 -9.06835938 14.94238281 C-9.07443207 13.81709167 -9.08050476 12.69180054 -9.08676147 11.53240967 C-9.078302 10.50609436 -9.06984253 9.47977905 -9.06112671 8.42236328 C-9.05999563 7.52935516 -9.05886456 6.63634705 -9.0576992 5.71627808 C-8.20592041 0.60347944 -4.83341152 -0.20024605 0 0 Z " fill="#fff" transform="translate(14.68017578125,-0.4501953125)"/>
</svg>
