<?xml version="1.0" encoding="UTF-8"?>
<svg version="1.1" xmlns="http://www.w3.org/2000/svg" width="128" height="128">
<path d="M0 0 C0.55429688 -0.5775 1.10859375 -1.155 1.6796875 -1.75 C2.40414062 -2.4925 3.12859375 -3.235 3.875 -4 C4.59429687 -4.7425 5.31359375 -5.485 6.0546875 -6.25 C8 -8 8 -8 10 -8 C10 4.54 10 17.08 10 30 C-2.21 30 -14.42 30 -27 30 C-25.25323081 26.50646162 -24.08594785 24.86054237 -21.375 22.25 C-20.42753906 21.32960938 -20.42753906 21.32960938 -19.4609375 20.390625 C-18.97882813 19.93171875 -18.49671875 19.4728125 -18 19 C-18.68771938 15.88020766 -18.68771938 15.88020766 -21.14453125 14.6484375 C-22.46517578 14.01808594 -22.46517578 14.01808594 -23.8125 13.375 C-24.68519531 12.94960938 -25.55789062 12.52421875 -26.45703125 12.0859375 C-33.75322876 8.97020339 -41.11869271 9.11955715 -48.625 11.5625 C-57.61068597 15.192311 -63.18643989 21.14533896 -67 30 C-69.57390025 37.96919115 -68.81931923 47.20030262 -65.31640625 54.71875 C-60.54136536 62.99359831 -54.14859485 67.83879691 -44.984375 70.609375 C-36.80378423 72.21972751 -29.40434271 70.68632754 -22 67 C-19.69 65.35 -17.38 63.7 -15 62 C-10.05 66.95 -5.1 71.9 0 77 C-4.41129633 85.82259266 -13.79774647 89.0123523 -22.703125 92.0546875 C-36.16330804 95.91412387 -50.15732866 94.37599847 -62.890625 88.71484375 C-77.13720727 80.67314086 -86.46770444 68.64372983 -91 53 C-94.47995965 39.05696166 -91.97195824 23.94221433 -84.7890625 11.6640625 C-76.08117008 -1.30271181 -64.32781862 -9.72858035 -49.125 -13.25 C-30.97334977 -16.39326548 -14.42142786 -11.14383062 0 0 Z " fill="#fff" transform="translate(105,24)"/>
</svg>
