<?xml version="1.0" encoding="UTF-8"?>
<svg version="1.1" xmlns="http://www.w3.org/2000/svg" width="128" height="128">
<path d="M0 0 C2.58175659 1.926651 2.58175659 1.926651 5.17919922 4.48461914 C5.89740089 5.1824501 5.89740089 5.1824501 6.63011169 5.89437866 C8.20144389 7.42855913 9.75359982 8.98052925 11.3046875 10.53515625 C12.39419481 11.61366891 13.48421962 12.691659 14.57473755 13.76914978 C16.85439592 16.02792734 19.12403102 18.29624372 21.38769531 20.57104492 C24.2846219 23.47966537 27.21007091 26.35757606 30.14445305 29.2283411 C32.40266099 31.4458963 34.64213327 33.68166186 36.8767128 35.92300224 C37.94770603 36.99179399 39.02503327 38.05427862 40.10879135 39.11012459 C49.58936858 48.37417271 49.58936858 48.37417271 50.31347656 53 C49.31372324 59.38673557 42.92190424 64.14921404 38.4921875 68.46484375 C37.40658182 69.54821791 36.32238361 70.6330041 35.23953247 71.71913147 C32.97015267 73.98677133 30.68776081 76.24012999 28.39453125 78.48364258 C25.46014735 81.35562311 22.55539729 84.25550817 19.6592083 87.16594601 C17.42454016 89.40703409 15.17746324 91.63532459 12.92618179 93.8597126 C11.85048574 94.92455338 10.77804233 95.99269063 9.70898056 97.06419182 C8.21102793 98.56071257 6.69779914 100.03985374 5.17919922 101.51538086 C4.32204315 102.35951035 3.46488708 103.20363983 2.58175659 104.073349 C-0.39848149 106.29736915 -2.30515494 106.84798035 -6 107 C-10.27574638 104.77661188 -13.56556633 102.18722591 -16 98 C-16.20124364 94.44469577 -15.84903612 92.15041519 -13.70214844 89.24145508 C-8.67718893 83.63469717 -3.41201427 78.29662934 1.9375 73 C2.81212891 72.12988281 3.68675781 71.25976562 4.58789062 70.36328125 C6.72297449 68.23986451 8.86037205 66.11883622 11 64 C9.91671921 63.99413376 8.83343842 63.98826752 7.71733093 63.98222351 C-2.48016974 63.92506738 -12.6774557 63.85234325 -22.87473774 63.76428509 C-28.11756676 63.71951373 -33.36031686 63.68027261 -38.60327148 63.65356445 C-43.66085537 63.62759887 -48.71813662 63.58724462 -53.77553368 63.53681374 C-55.70723907 63.52009926 -57.63899687 63.5086136 -59.57076454 63.50238609 C-62.27186612 63.49279466 -64.97218537 63.46479563 -67.6730957 63.43237305 C-68.47582413 63.43380814 -69.27855255 63.43524323 -70.10560608 63.4367218 C-75.47968942 63.34519079 -75.47968942 63.34519079 -77.99552917 61.67610168 C-79.67067948 58.88087641 -79.39503719 56.20594983 -79.375 53 C-79.38273437 51.7625 -79.39046875 50.525 -79.3984375 49.25 C-79 46 -79 46 -77.99552917 44.32389832 C-74.80624536 42.20802473 -71.37706713 42.56100513 -67.6730957 42.56762695 C-66.82409698 42.5574353 -65.97509827 42.54724365 -65.10037231 42.53674316 C-62.29210888 42.50653145 -59.48418607 42.4973348 -56.67578125 42.48828125 C-54.72949584 42.47144062 -52.78322135 42.45329122 -50.83695984 42.43388367 C-45.7127117 42.38631067 -40.58850782 42.35654855 -35.46411133 42.33044434 C-30.23575091 42.30067561 -25.0075431 42.25413266 -19.77929688 42.20898438 C-9.51961095 42.12286823 0.74010631 42.05555994 11 42 C10.25314941 41.26362305 9.50629883 40.52724609 8.73681641 39.76855469 C5.96235565 37.03034476 3.19456057 34.28547967 0.42871094 31.53857422 C-0.76837835 30.35153089 -1.96725809 29.16629029 -3.16796875 27.98291016 C-4.89538971 26.27979893 -6.61622856 24.57026878 -8.3359375 22.859375 C-8.87245941 22.33317566 -9.40898132 21.80697632 -9.96176147 21.26483154 C-13.28539839 17.94219804 -15.50433517 15.29244983 -16.5 10.6875 C-15.61347087 5.92240591 -12.08224926 2.44600643 -8.171875 -0.26953125 C-5.0768258 -1.31049204 -3.15154032 -0.81650788 0 0 Z " fill="#fff" transform="translate(79,11)"/>
</svg>
